<svg width="0" height="0" class="hidden">
  <symbol fill="none" xmlns="http://www.w3.org/2000/svg" viewBox="0 0 32 32" id="add_course_circle">
    <path fill-rule="evenodd" clip-rule="evenodd" d="M16 29.3333C23.3638 29.3333 29.3333 23.3638 29.3333 16C29.3333 8.63616 23.3638 2.66663 16 2.66663C8.63619 2.66663 2.66666 8.63616 2.66666 16C2.66666 23.3638 8.63619 29.3333 16 29.3333ZM14.6667 14.6666V9.33329H17.3333V14.6666H22.6667V17.3333H17.3333V22.6666H14.6667V17.3333H9.33332V14.6666H14.6667Z" fill="white"></path>
  </symbol>
  <symbol fill="none" xmlns="http://www.w3.org/2000/svg" viewBox="0 0 42 42" id="avatar_circle">
    <path fill-rule="evenodd" clip-rule="evenodd" d="M41.8332 21C41.8332 32.5059 32.5058 41.8333 20.9998 41.8333C9.4939 41.8333 0.166504 32.5059 0.166504 21C0.166504 9.49403 9.4939 0.166626 20.9998 0.166626C32.5058 0.166626 41.8332 9.49403 41.8332 21ZM33.4998 28.4404C33.4998 31.8922 27.9034 35.5833 20.9998 35.5833C14.0963 35.5833 8.49984 31.8922 8.49984 28.4404C8.49984 24.9887 14.0963 23.0833 20.9998 23.0833C27.9034 23.0833 33.4998 24.9887 33.4998 28.4404ZM20.9998 18.9166C24.4516 18.9166 27.2498 16.1184 27.2498 12.6666C27.2498 9.21485 24.4516 6.41663 20.9998 6.41663C17.5481 6.41663 14.7498 9.21485 14.7498 12.6666C14.7498 16.1184 17.5481 18.9166 20.9998 18.9166Z" fill="#D9D9D9"></path>
  </symbol>
  <symbol fill="none" xmlns="http://www.w3.org/2000/svg" viewBox="0 0 197 197" id="avatar_square">
    <mask id="mask0_33_2014" maskUnits="userSpaceOnUse" x="0" y="0" width="197" height="197">
      <path d="M0 20C0 8.95431 8.95431 0 20 0L177 0C188.046 0 197 8.9543 197 20V177C197 188.046 188.046 197 177 197H20C8.95431 197 0 188.046 0 177L0 20Z" fill="#D9D9D9"></path>
    </mask>
    <g mask="url(#mask0_33_2014)">
      <path d="M0 20C0 8.95431 8.95431 0 20 0L177 0C188.046 0 197 8.9543 197 20V177C197 188.046 188.046 197 177 197H20C8.95431 197 0 188.046 0 177L0 20Z" fill="#D9D9D9"></path>
      <path d="M98.5 125.095C50.3529 125.095 9.22177 155.134 -7.1748 197.492H204.175C187.778 155.134 146.647 125.095 98.5 125.095Z" fill="white"></path>
      <path fill-rule="evenodd" clip-rule="evenodd" d="M98.0073 100.751C117.999 100.751 134.206 84.5919 134.206 64.6582C134.206 44.7244 117.999 28.5649 98.0073 28.5649C78.0153 28.5649 61.8086 44.7244 61.8086 64.6582C61.8086 84.5919 78.0153 100.751 98.0073 100.751Z" fill="white"></path>
    </g>
  </symbol>
  <symbol fill="none" xmlns="http://www.w3.org/2000/svg" viewBox="0 0 18 18" id="calendar">
    <path d="M7.5 2.625C7.5 1.79657 6.82843 1.125 6 1.125C5.17157 1.125 4.5 1.79657 4.5 2.625C2.84315 2.625 1.5 3.96815 1.5 5.625H16.5C16.5 3.96815 15.1569 2.625 13.5 2.625C13.5 1.79657 12.8284 1.125 12 1.125C11.1716 1.125 10.5 1.79657 10.5 2.625H7.5Z" fill="#202020"></path>
    <path fill-rule="evenodd" clip-rule="evenodd" d="M1.5 7.125H16.5V11.325C16.5 13.0052 16.5 13.8452 16.173 14.487C15.8854 15.0515 15.4265 15.5104 14.862 15.798C14.2202 16.125 13.3802 16.125 11.7 16.125H6.3C4.61984 16.125 3.77976 16.125 3.13803 15.798C2.57354 15.5104 2.1146 15.0515 1.82698 14.487C1.5 13.8452 1.5 13.0052 1.5 11.325V7.125ZM10.5 11.325C10.5 10.905 10.5 10.6949 10.5817 10.5345C10.6537 10.3934 10.7684 10.2787 10.9095 10.2067C11.0699 10.125 11.28 10.125 11.7 10.125H12.3C12.72 10.125 12.9301 10.125 13.0905 10.2067C13.2316 10.2787 13.3463 10.3934 13.4183 10.5345C13.5 10.6949 13.5 10.905 13.5 11.325V11.925C13.5 12.345 13.5 12.5551 13.4183 12.7155C13.3463 12.8566 13.2316 12.9713 13.0905 13.0433C12.9301 13.125 12.72 13.125 12.3 13.125H11.7C11.28 13.125 11.0699 13.125 10.9095 13.0433C10.7684 12.9713 10.6537 12.8566 10.5817 12.7155C10.5 12.5551 10.5 12.345 10.5 11.925V11.325Z" fill="#202020"></path>
  </symbol>
  <symbol fill="none" xmlns="http://www.w3.org/2000/svg" viewBox="0 0 58 58" id="check_success">
    <path fill-rule="evenodd" clip-rule="evenodd" d="M29.0003 57.3332C44.6484 57.3332 57.3337 44.6479 57.3337 28.9998C57.3337 13.3518 44.6484 0.666504 29.0003 0.666504C13.3523 0.666504 0.666992 13.3518 0.666992 28.9998C0.666992 44.6479 13.3523 57.3332 29.0003 57.3332ZM28.7549 40.7467L44.3383 22.33L40.0124 18.6697L26.556 34.5727L18.8076 25.7174L14.543 29.4489L24.4597 40.7823C25.0031 41.4033 25.7903 41.7566 26.6155 41.7497C27.4407 41.7429 28.2219 41.3766 28.7549 40.7467Z" fill="#BCEC30"></path>
  </symbol>
  <symbol fill="none" xmlns="http://www.w3.org/2000/svg" viewBox="0 0 32 32" id="delete_course_circle">
    <path fill-rule="evenodd" clip-rule="evenodd" d="M15.9998 29.3333C23.3636 29.3333 29.3332 23.3638 29.3332 16C29.3332 8.63616 23.3636 2.66663 15.9998 2.66663C8.63604 2.66663 2.6665 8.63616 2.6665 16C2.6665 23.3638 8.63604 29.3333 15.9998 29.3333ZM9.33317 14.6666V17.3333H22.6665V14.6666H9.33317Z" fill="white"></path>
  </symbol>
  <symbol fill="none" xmlns="http://www.w3.org/2000/svg" viewBox="0 0 18 18" id="difficulty_signal">
    <g clip-path="url(#clip0_60_1346)">
      <path fill-rule="evenodd" clip-rule="evenodd" d="M15 2.625C15.2984 2.625 15.5845 2.74353 15.7955 2.9545C16.0065 3.16548 16.125 3.45163 16.125 3.75V14.25C16.125 14.5484 16.0065 14.8345 15.7955 15.0455C15.5845 15.2565 15.2984 15.375 15 15.375C14.7016 15.375 14.4155 15.2565 14.2045 15.0455C13.9935 14.8345 13.875 14.5484 13.875 14.25V3.75C13.875 3.45163 13.9935 3.16548 14.2045 2.9545C14.4155 2.74353 14.7016 2.625 15 2.625Z" fill="#D9D9D9"></path>
      <path fill-rule="evenodd" clip-rule="evenodd" d="M12 4.875C12.2984 4.875 12.5845 4.99353 12.7955 5.2045C13.0065 5.41548 13.125 5.70163 13.125 6V14.25C13.125 14.5484 13.0065 14.8345 12.7955 15.0455C12.5845 15.2565 12.2984 15.375 12 15.375C11.7016 15.375 11.4155 15.2565 11.2045 15.0455C10.9935 14.8345 10.875 14.5484 10.875 14.25V6C10.875 5.70163 10.9935 5.41548 11.2045 5.2045C11.4155 4.99353 11.7016 4.875 12 4.875Z" fill="#D9D9D9"></path>
      <path fill-rule="evenodd" clip-rule="evenodd" d="M9 7.125C9.29837 7.125 9.58452 7.24353 9.7955 7.4545C10.0065 7.66548 10.125 7.95163 10.125 8.25V14.25C10.125 14.5484 10.0065 14.8345 9.7955 15.0455C9.58452 15.2565 9.29837 15.375 9 15.375C8.70163 15.375 8.41548 15.2565 8.2045 15.0455C7.99353 14.8345 7.875 14.5484 7.875 14.25V8.25C7.875 7.95163 7.99353 7.66548 8.2045 7.4545C8.41548 7.24353 8.70163 7.125 9 7.125Z" fill="#00C1FF"></path>
      <path fill-rule="evenodd" clip-rule="evenodd" d="M6 9.375C6.29837 9.375 6.58452 9.49353 6.7955 9.7045C7.00647 9.91548 7.125 10.2016 7.125 10.5V14.25C7.125 14.5484 7.00647 14.8345 6.7955 15.0455C6.58452 15.2565 6.29837 15.375 6 15.375C5.70163 15.375 5.41548 15.2565 5.2045 15.0455C4.99353 14.8345 4.875 14.5484 4.875 14.25V10.5C4.875 10.2016 4.99353 9.91548 5.2045 9.7045C5.41548 9.49353 5.70163 9.375 6 9.375Z" fill="#00C1FF"></path>
      <path fill-rule="evenodd" clip-rule="evenodd" d="M3 11.625C3.29837 11.625 3.58452 11.7435 3.7955 11.9545C4.00647 12.1655 4.125 12.4516 4.125 12.75V14.25C4.125 14.5484 4.00647 14.8345 3.7955 15.0455C3.58452 15.2565 3.29837 15.375 3 15.375C2.70163 15.375 2.41548 15.2565 2.2045 15.0455C1.99353 14.8345 1.875 14.5484 1.875 14.25V12.75C1.875 12.4516 1.99353 12.1655 2.2045 11.9545C2.41548 11.7435 2.70163 11.625 3 11.625Z" fill="#00C1FF"></path>
    </g>
    <defs>
      <clipPath id="clip0_60_1346">
        <rect width="18" height="18" fill="white"></rect>
      </clipPath>
    </defs>
  </symbol>
  <symbol fill="none" xmlns="http://www.w3.org/2000/svg" viewBox="0 0 14 9" id="dropdown_arrow">
    <path d="M12.3553 1.03308L6.67773 6.7107L1.00012 1.03308" stroke="black" stroke-width="2"></path>
  </symbol>
  <symbol fill="none" xmlns="http://www.w3.org/2000/svg" viewBox="0 0 20 20" id="star">
    <path d="M9.46373 1.36751C9.6202 0.704433 9.69843 0.372896 9.82424 0.298229C9.93259 0.233924 10.0674 0.233924 10.1758 0.298229C10.3016 0.372896 10.3798 0.704434 10.5363 1.36751L11.2997 4.60302C11.5837 5.80636 11.7257 6.40803 12.0343 6.89596C12.3071 7.32744 12.6726 7.69285 13.104 7.96574C13.592 8.27432 14.1936 8.4163 15.397 8.70025L18.6325 9.46373C19.2956 9.6202 19.6271 9.69843 19.7018 9.82424C19.7661 9.93259 19.7661 10.0674 19.7018 10.1758C19.6271 10.3016 19.2956 10.3798 18.6325 10.5363L15.397 11.2997C14.1936 11.5837 13.592 11.7257 13.104 12.0343C12.6726 12.3071 12.3071 12.6726 12.0343 13.104C11.7257 13.592 11.5837 14.1936 11.2997 15.397L10.5363 18.6325C10.3798 19.2956 10.3016 19.6271 10.1758 19.7018C10.0674 19.7661 9.93259 19.7661 9.82424 19.7018C9.69843 19.6271 9.6202 19.2956 9.46373 18.6325L8.70025 15.397C8.4163 14.1936 8.27432 13.592 7.96574 13.104C7.69285 12.6726 7.32744 12.3071 6.89596 12.0343C6.40803 11.7257 5.80636 11.5837 4.60301 11.2997L1.36751 10.5363C0.704433 10.3798 0.372896 10.3016 0.298229 10.1758C0.233924 10.0674 0.233924 9.93259 0.298229 9.82424C0.372896 9.69843 0.704434 9.6202 1.36751 9.46373L4.60302 8.70025C5.80636 8.4163 6.40803 8.27432 6.89596 7.96574C7.32744 7.69285 7.69285 7.32744 7.96574 6.89596C8.27432 6.40803 8.4163 5.80636 8.70025 4.60301L9.46373 1.36751Z" fill="black"></path>
  </symbol>
  <symbol fill="none" xmlns="http://www.w3.org/2000/svg" viewBox="0 0 18 18" id="time">
    <path fill-rule="evenodd" clip-rule="evenodd" d="M9 16.5C13.1421 16.5 16.5 13.1421 16.5 9C16.5 4.85786 13.1421 1.5 9 1.5C4.85786 1.5 1.5 4.85786 1.5 9C1.5 13.1421 4.85786 16.5 9 16.5ZM8.25 4.5V9C8.25 9.41421 8.58579 9.75 9 9.75H12.75V8.25H9.75V4.5H8.25Z" fill="#202020"></path>
  </symbol>
</svg>